<?xml version="1.0" encoding="UTF-8"?>
<svg width="1200pt" height="1200pt" version="1.1" viewBox="0 0 1200 1200" xmlns="http://www.w3.org/2000/svg">
 <path d="m871.64 729.04-48.328-48.328c-10.551-10.566-27.75-10.578-38.316 0l-48.332 48.332c-10.551 10.559-10.551 27.742 0.007813 38.309l48.332 48.332c5.2773 5.2734 12.211 7.9102 19.148 7.9102s13.883-2.6367 19.16-7.918l48.328-48.328c10.562-10.559 10.562-27.742 0-38.309zm-16.969 21.348-48.324 48.324c-1.1953 1.1836-3.1992 1.1914-4.3828 0.007813l-48.324-48.324c-1.1914-1.1914-1.1914-3.1992-0.007813-4.3828l48.328-48.328c0.58984-0.58984 1.3906-0.89063 2.1836-0.89063 0.80078 0 1.6016 0.29688 2.1914 0.89063l48.328 48.328c1.1914 1.1875 1.1914 3.1836 0.007813 4.375z"/>
 <path d="m1003.6 810.8c-2.7656-6.7031-7.957-11.918-14.617-14.695l-63.094-26.266c-6.6719-2.7852-14.035-2.7891-20.73-0.027344-6.7031 2.7656-11.918 7.957-14.695 14.617l-26.266 63.094c-2.7773 6.668-2.7891 14.027-0.027344 20.73 2.7656 6.7031 7.957 11.918 14.617 14.695l63.094 26.266c3.3398 1.3945 6.8594 2.0898 10.383 2.0898 3.4961 0 7.0078-0.68359 10.348-2.0625 6.7031-2.7656 11.918-7.957 14.695-14.617l26.273-63.102c2.7656-6.6602 2.7773-14.02 0.019531-20.723zm-22.18 11.496-26.277 63.105c-0.41797 1.0039-1.2305 1.4648-1.6797 1.6445-0.44531 0.1875-1.3398 0.43359-2.3555 0.011719l-63.102-26.273c-1.0078-0.41797-1.4648-1.2305-1.6523-1.6758-0.17969-0.45312-0.42578-1.3555-0.007813-2.3594l26.273-63.102c0.41797-1.0078 1.2305-1.4648 1.6758-1.6523 0.26953-0.10547 0.69922-0.23828 1.2109-0.23828 0.34766 0 0.73828 0.066406 1.1484 0.23438l63.102 26.273c1.0039 0.41797 1.4648 1.2305 1.6445 1.6797 0.1875 0.44922 0.43359 1.3516 0.019531 2.3516z"/>
 <path d="m132 1080h936c6.6289 0 12-5.3711 12-12v-119.55c0-6.6289-5.3711-12-12-12h-25.125l37.074-404.8c0.30859-3.3594-0.80859-6.6914-3.082-9.1875-2.2773-2.4883-5.4922-3.9062-8.8672-3.9062h-400.9c-3.375 0-6.5898 1.418-8.8633 3.9102-2.2734 2.4961-3.3906 5.8281-3.082 9.1875l37.078 404.8h-110.56c21.102-18.16 34.535-44.996 34.535-74.957v-330.75c0-0.050782-0.007813-0.10156-0.007813-0.15234 0-0.011719 0.007813-0.019532 0.007813-0.03125 0-0.015625-0.007813-0.03125-0.007813-0.046875-0.10156-112.87-74.848-209.82-183.02-239.04v-33.258c15.773-0.38672 28.508-13.273 28.508-29.137l-0.003906-79.875c0-16.109-13.109-29.207-29.215-29.207h-128.74c-16.109 0-29.207 13.102-29.207 29.207v79.867c0 15.863 12.727 28.75 28.5 29.137v33.258c-108.17 29.219-182.91 126.16-183.02 239.04-0.003907 0.019532-0.011719 0.035156-0.011719 0.050782 0 0.011718 0.007812 0.019531 0.007812 0.03125 0 0.050781-0.007812 0.10156-0.007812 0.14844v330.75c0 29.961 13.434 56.797 34.535 74.957l-22.535 0.003906c-6.6289 0-12 5.3711-12 12v119.55c0 6.6289 5.3711 12 12 12zm922.85-537.45-7.4258 81.082h-359.75l-7.4258-81.082zm-364.98 105.08h355.35l-26.449 288.81h-302.45zm-545.88-105.08h448.21v249.96h-448.21zm154.52-313.48v-79.871c0-2.8711 2.3359-5.207 5.207-5.207h128.74c2.8789 0 5.2148 2.3359 5.2148 5.207v79.867c0 2.8711-2.3359 5.207-5.2148 5.207l-128.74 0.003906c-2.875 0.003906-5.2109-2.3359-5.2109-5.207zm19.188 83.461c5.4492-1.2539 9.3086-6.1055 9.3086-11.695v-42.555h82.16v42.555c0 5.5898 3.8594 10.441 9.3086 11.695 98.285 22.617 167.89 106.4 173.2 206.02h-447.17c5.3047-99.617 74.914-183.4 173.2-206.02zm-173.71 548.95v-44.973h448.21v44.973c0 41.332-33.621 74.957-74.953 74.957l-298.3 0.003906c-41.332 0-74.953-33.625-74.953-74.961zm0 98.961h912v95.555h-912z"/>
</svg>
