<?xml version="1.0" encoding="UTF-8"?>
<svg width="1200pt" height="1200pt" version="1.1" viewBox="0 0 1200 1200" xmlns="http://www.w3.org/2000/svg">
 <path d="m522.32 959.58h-0.70312c-16.875-1.4062-33.75-3.5156-49.922-7.7344-8.4375-2.1094-14.062-11.25-11.25-20.391 2.1094-8.4375 11.25-14.062 19.688-11.25 14.062 3.5156 28.125 5.625 42.891 6.3281 9.1406 0 16.172 7.7344 15.469 16.875s-7.7344 16.172-16.172 16.172z" fill-rule="evenodd"/>
 <path d="m635.48 1200h-205.26c-20.391 0-37.969-14.062-42.188-33.75-4.9219-19.688 4.2188-40.078 22.5-49.219l71.016-35.859-14.062-130.74c-48.516-13.359-91.406-42.891-121.6-82.266-61.172-81.562-54.141-180.66-37.266-249.56 13.359-54.141 14.062-114.61 3.5156-176.44-3.5156-17.578-10.547-52.031-21.094-78.047-9.1406-21.797-7.0312-45.703 6.3281-66.094 9.1406-13.359 21.797-23.203 36.562-28.125 9.1406-2.1094 18.281 2.8125 21.094 11.25 2.1094 8.4375-2.1094 17.578-11.25 20.391-7.7344 2.1094-14.062 7.0312-18.984 14.766-7.0312 10.547-8.4375 23.203-3.5156 35.156 11.953 29.531 19.688 66.094 23.203 85.078 11.953 65.391 10.547 131.44-4.2188 189.79-14.766 61.875-21.797 150.42 32.344 221.44 27.422 37.266 68.203 63.281 113.91 73.828 7.0312 1.4062 11.953 7.0312 12.656 14.062l16.172 153.24c0.70312 6.3281-2.8125 13.359-9.1406 16.172l-80.859 40.781c-4.9219 2.8125-7.0312 7.7344-5.625 12.656 0.70312 4.9219 5.625 8.4375 10.547 8.4375h205.26c4.9219 0 9.1406-3.5156 10.547-8.4375s-0.70312-9.8438-5.625-12.656l-80.859-40.781c-6.3281-3.5156-9.8438-9.8438-9.1406-16.172l16.172-153.24c0.70312-7.0312 5.625-12.656 12.656-14.062 45.703-10.547 86.484-36.562 113.91-73.828 54.141-71.016 47.109-159.56 32.344-221.44-14.766-58.359-16.172-123.71-4.2188-189.79 3.5156-18.984 11.25-56.25 23.203-85.078 4.9219-11.953 3.5156-24.609-3.5156-35.156s-17.578-16.172-30.938-16.172h-220.03c-9.1406 0-16.172-7.7344-16.172-16.875s7.0312-16.172 16.172-16.172h220.03c23.906 0 45 11.25 58.359 30.938s15.469 43.594 6.3281 66.094c-10.547 26.016-17.578 60.469-21.094 78.047-10.547 61.172-9.8438 122.29 3.5156 176.44 16.875 68.203 23.906 167.29-37.266 249.56-30.234 39.375-73.125 68.906-121.6 82.266l-14.062 130.03 71.016 36.562c18.281 9.1406 27.422 28.828 23.203 49.219-4.9219 19.688-22.5 33.75-42.891 33.75z" fill-rule="evenodd"/>
 <path d="m509.68 569.44c-3.5156 0-7.0312-0.70312-9.8438-3.5156-7.0312-4.9219-9.1406-15.469-3.5156-22.5 2.1094-3.5156 57.656-77.344 134.26-82.969 39.375-3.5156 76.641 12.656 111.09 46.406 6.3281 7.0312 6.3281 16.875 0 23.906-6.3281 6.3281-16.875 6.3281-23.203 0-27.422-27.422-55.547-40.078-85.781-37.969-61.172 4.9219-109.69 69.609-109.69 70.312-3.5156 4.2188-8.4375 6.3281-13.359 6.3281z" fill-rule="evenodd"/>
 <path d="m632.68 630.56c-40.078 0-76.641-14.062-106.17-43.594-60.469-59.062-134.26-43.594-184.87-20.391-8.4375 3.5156-17.578 0-21.797-8.4375-3.5156-8.4375 0-18.281 8.4375-21.797 49.219-22.5 143.39-48.516 221.44 27.422 55.547 54.141 126.52 33.75 176.44 7.0312 8.4375-4.2188 18.281-1.4062 22.5 7.0312 4.2188 7.7344 1.4062 17.578-7.0312 21.797-38.672 21.094-75.234 30.938-108.98 30.938z" fill-rule="evenodd"/>
 <path d="m523.74 1107.2h-25.312c-8.4375 0-16.172-7.7344-16.172-16.875s7.7344-16.172 16.172-16.172h25.312c9.1406 0 16.172 7.0312 16.172 16.172s-7.0312 16.875-16.172 16.875z" fill-rule="evenodd"/>
 <path d="m422.48 380.29c-7.0312 0-14.062-0.70312-21.797-2.8125-45-11.953-71.719-59.062-59.766-104.06s58.359-71.719 104.06-59.766c21.797 5.625 40.078 19.688 51.328 39.375s14.062 42.188 8.4375 64.688c-10.547 37.266-45 62.578-82.266 62.578zm0-136.36c-9.1406 0-17.578 2.1094-26.016 6.3281-11.953 7.0312-20.391 18.281-23.906 31.641-7.0312 27.422 9.1406 56.25 36.562 63.281 13.359 4.2188 27.422 2.1094 39.375-4.9219s21.094-18.281 24.609-31.641 1.4062-27.422-5.625-39.375-18.281-20.391-31.641-23.906c-4.2188-1.4062-8.4375-1.4062-13.359-1.4062z" fill-rule="evenodd"/>
 <path d="m440.06 246.05c-7.0312 0-14.062-4.9219-15.469-12.656-4.9219-19.688-0.70312-63.281 47.812-87.891 8.4375-4.2188 18.281-0.70312 21.797 7.0312 4.2188 8.4375 1.4062 18.281-7.0312 21.797-36.562 18.281-31.641 48.516-30.938 52.031 2.1094 8.4375-3.5156 17.578-11.953 18.984-1.4062 0.70312-2.8125 0.70312-4.2188 0.70312z" fill-rule="evenodd"/>
 <path d="m355.03 305.81h-2.1094c-37.266-4.9219-69.609-26.719-87.891-59.062-23.906-40.781-21.094-92.109 7.0312-130.74 2.8125-3.5156 7.0312-5.625 11.25-6.3281 47.812-5.625 93.516 17.578 117.42 59.062 11.25 18.984 16.172 40.781 15.469 63.281 0 8.4375-7.7344 15.469-16.875 15.469s-16.172-7.7344-15.469-16.875c0-16.172-3.5156-31.641-11.953-45.703-15.469-27.422-45.703-44.297-77.344-42.891-16.875 26.719-17.578 60.469-1.4062 88.594 13.359 23.203 36.562 38.672 63.984 42.188 8.4375 1.4062 14.766 9.8438 14.062 18.281-1.4062 8.4375-8.4375 14.766-16.172 14.766z" fill-rule="evenodd"/>
 <path d="m363.42 277.69c-5.625 0-11.25-2.8125-14.062-8.4375l-40.078-68.906c-1.4062-2.8125-2.1094-5.625-2.1094-8.4375 0-5.625 2.8125-11.25 7.7344-14.062 8.4375-4.9219 18.281-2.1094 22.5 5.625l40.078 69.609c1.4062 2.8125 2.8125 5.625 2.8125 8.4375 0 5.625-3.5156 11.25-8.4375 14.062-2.8125 1.4062-5.625 2.1094-8.4375 2.1094z" fill-rule="evenodd"/>
 <path d="m648.84 493.5c-0.70312 0-2.8125-0.70312-3.5156-0.70312-9.1406-2.8125-14.062-11.25-11.953-20.391l66.797-253.08c2.1094-8.4375 11.25-14.062 19.688-11.953 9.1406 2.8125 14.062 11.25 11.953 20.391l-66.797 253.08c-2.1094 7.7344-8.4375 12.656-16.172 12.656z" fill-rule="evenodd"/>
 <path d="m897 286.82c-4.9219 0-9.8438-0.70312-14.766-2.1094l-340.97-91.406c-23.203-5.625-38.672-25.312-40.781-48.516-1.4062-23.906 11.953-45 33.75-54.141l205.97-86.484c23.203-9.8438 49.219-2.8125 63.984 17.578l135.66 177.84c14.062 18.984 14.766 43.594 1.4062 63.281-9.8438 15.469-26.719 23.906-44.297 23.906zm-135.66-253.78c-2.8125 0-5.625 0.70312-8.4375 1.4062l-205.97 86.484c-9.1406 3.5156-14.062 11.953-13.359 21.797 0.70312 9.1406 6.3281 16.875 16.172 18.984l340.97 91.406c9.1406 2.8125 18.281-0.70312 23.906-8.4375 4.9219-7.7344 4.9219-17.578-0.70312-25.312l-135.66-177.84c-4.2188-5.625-10.547-8.4375-16.875-8.4375z" fill-rule="evenodd"/>
 <path d="m787.36 258.71c-2.8125 0-4.9219 0-6.3281-0.70312-8.4375-2.1094-13.359-11.25-11.25-20.391 2.1094-7.0312 8.4375-11.953 15.469-11.953 1.4062-1.4062 3.5156-4.9219 6.3281-11.25 5.625-12.656 6.3281-25.312 4.9219-31.641l-31.641-140.58-98.438 105.47c-4.2188 4.9219-9.8438 16.172-11.25 30.234-0.70312 7.0312-0.70312 11.25 0 13.359 5.625 3.5156 8.4375 10.547 7.0312 17.578-2.8125 9.1406-11.953 14.062-20.391 11.953-5.625-1.4062-23.906-9.8438-19.688-46.406 2.8125-19.688 10.547-37.969 20.391-49.219l105.47-113.2c11.25-11.953 21.797-11.25 27.422-9.8438s14.766 6.3281 18.984 22.5l33.75 150.42c3.5156 14.766 0.70312 34.453-6.3281 52.734-11.25 26.719-26.016 30.938-34.453 30.938z" fill-rule="evenodd"/>
</svg>
