<?xml version="1.0" encoding="UTF-8"?>
<svg width="1200pt" height="1200pt" version="1.1" viewBox="0 0 1200 1200" xmlns="http://www.w3.org/2000/svg">
 <path d="m937.14 440-51.43 17.145v-17.145c34.285-28.57 57.145-74.285 57.145-125.71 0-80-51.43-142.86-120-165.71-34.285-108.57-154.29-154.29-251.43-97.145-51.43-28.57-120-28.57-171.43 0-97.145-57.145-217.14-5.7148-251.43 97.145-68.57 22.859-120 91.43-120 165.71 0 51.43 22.855 97.145 57.145 125.71v560c0 97.145 74.285 171.43 171.43 171.43h457.14c97.145 0 171.43-74.285 171.43-171.43h114.29c97.145 0 171.43-74.285 171.43-171.43v-228.57c-0.003906-125.71-125.72-205.71-234.29-160zm-737.14-182.86c34.285 0 57.145-22.855 57.145-57.145 0-51.43 62.855-80 97.145-40 11.426 17.145 28.566 22.855 45.711 22.855s34.285-5.7148 45.715-17.145c22.855-22.855 62.855-22.855 85.715 0 5.7148 11.434 22.855 17.145 40 17.145 17.145 0 34.285-5.7148 45.715-17.145 34.285-40 97.145-17.145 97.145 40 0 34.285 22.855 57.145 57.145 57.145 34.285 0 57.145 22.855 57.145 57.145 0 34.285-22.855 57.145-57.145 57.145h-571.43c-34.285 0-57.145-22.855-57.145-57.145-0.003906-34.285 22.855-62.855 57.141-62.855zm571.43 742.86c0 34.285-22.855 57.145-57.145 57.145h-457.14c-34.285 0-57.145-22.855-57.145-57.145v-514.29h114.29v228.57c0 34.285 22.855 57.145 57.145 57.145 34.285 0 57.145-22.855 57.145-57.145v-228.57h114.29v114.29c0 34.285 22.855 57.145 57.145 57.145 34.285 0 57.145-22.855 57.145-57.145v-114.29h114.29zm285.71-171.43c0 34.285-22.855 57.145-57.145 57.145h-114.29v-302.86l91.43-40c40-17.145 80 11.43 80 51.43z"/>
</svg>
